<?xml version="1.0" encoding="iso-8859-1"?>
<!-- Uploaded to: SVG Repo, www.svgrepo.com, Generator: SVG Repo Mixer Tools -->
<svg height="800px" width="800px" version="1.1" id="Layer_1" xmlns="http://www.w3.org/2000/svg" xmlns:xlink="http://www.w3.org/1999/xlink" 
	 viewBox="0 0 512 512" xml:space="preserve">
<g>
	<path style="fill:#5A2479;" d="M289.941,305.281c-11.481-107.812,13.169-150.464,38.134-169.397
		c25.837-19.593,52.945-14.485,100.463-41.065c36.957-20.672,61.694-46.769,76.448-64.899
		c-2.672,26.179-11.674,71.915-45.46,110.527c-23.701,27.087-54.006,44.278-65.574,50.73
		c-25.106,14.006-32.608,13.003-47.549,22.439C326.653,226.092,303.317,250.869,289.941,305.281z"/>
	<path style="fill:#5A2479;" d="M223.426,305.281c11.481-107.812-13.169-150.464-38.134-169.397
		c-25.837-19.593-52.945-14.485-100.463-41.065C47.873,74.148,23.136,48.05,8.381,29.921c2.673,26.179,11.674,71.915,45.46,110.527
		c23.701,27.087,54.006,44.278,65.574,50.73c25.106,14.006,32.608,13.003,47.549,22.439
		C186.714,226.092,210.05,250.869,223.426,305.281z"/>
</g>
<circle style="fill:#956EC4;" cx="257.424" cy="295.753" r="186.324"/>
<path style="fill:#6D2C92;" d="M257.422,109.432c-38.94,0-75.083,11.952-104.978,32.378c21.149-8.337,44.192-12.918,68.304-12.918
	c102.903,0,186.324,83.42,186.324,186.323c0,63.964-32.237,120.393-81.345,153.946c69.112-27.246,118.019-94.613,118.019-173.406
	C443.745,192.852,360.326,109.432,257.422,109.432z"/>
<path style="fill:#B77FD8;" d="M292.787,458.502c-102.903,0-186.324-83.42-186.324-186.323c0-57.095,25.69-108.182,66.132-142.361
	c-60.257,30.864-101.497,93.585-101.497,165.938c0,102.903,83.42,186.324,186.324,186.324c45.808,0,87.746-16.541,120.192-43.962
	C352.172,451.15,323.338,458.502,292.787,458.502z"/>
<path style="fill:#FFD92D;" d="M287.911,327.161c0,17.585-14.283,97.871-31.903,97.871s-31.903-80.287-31.903-97.871
	s14.283-31.84,31.903-31.84S287.911,309.576,287.911,327.161z"/>
<path style="fill:#6D2C92;" d="M288.771,328.014c-13.578-67.114,0.185-103.957,16.203-125.397
	c40.132-53.716,116.146-39.814,168.296-106.331c18.434-23.509,26.812-48.046,31.01-65.07c4.924,15.5,15.104,55.058-1.04,98.496
	c-13.414,36.1-38.362,56.989-49.769,66.304c-45.628,37.264-76.956,25.296-116.597,58.298
	C321.547,267.077,302.112,288.945,288.771,328.014z"/>
<path style="fill:#F8F8F8;" d="M336.873,254.316c-13.191,10.983-29.42,28.723-42.193,58.356
	c14.34,15.226,34.684,24.734,57.25,24.734c43.428,0,78.634-35.206,78.634-78.634c0-15.162-4.295-29.319-11.729-41.328
	C390.117,230.093,365.692,230.324,336.873,254.316z"/>
<path style="fill:#FF4F18;" d="M336.873,254.316c-9.044,7.531-19.52,18.238-29.331,33.776c9.927,13.292,25.779,21.901,43.645,21.901
	c30.068,0,54.443-24.375,54.443-54.443c0-11.07-3.311-21.364-8.987-29.958C376.798,231.902,358.019,236.712,336.873,254.316z"/>
<path style="fill:#FFA81E;" d="M336.873,254.316c-5.691,4.738-11.948,10.735-18.248,18.399c6.681,7.151,16.194,11.622,26.753,11.622
	c20.216,0,36.605-16.388,36.605-36.605c0-5.822-1.379-11.316-3.797-16.203C364.789,236.178,351.388,242.231,336.873,254.316z"/>
<path style="fill:#6D2C92;" d="M223.229,328.014c13.578-67.114-0.185-103.957-16.203-125.397
	C166.894,148.902,90.88,162.803,38.73,96.287c-18.434-23.51-26.812-48.046-31.01-65.071c-4.924,15.5-15.104,55.058,1.04,98.497
	c13.414,36.1,38.362,56.989,49.769,66.304c45.628,37.264,76.956,25.296,116.597,58.299
	C190.453,267.077,209.886,288.945,223.229,328.014z"/>
<path style="fill:#F8F8F8;" d="M175.125,254.316c-28.492-23.72-52.689-24.21-80.988-36.444
	c-7.556,12.077-11.925,26.352-11.925,41.648c0,43.428,35.206,78.634,78.634,78.634c22.404,0,42.614-9.373,56.937-24.408
	C204.941,283.462,188.475,265.432,175.125,254.316z"/>
<path style="fill:#FF4F18;" d="M175.125,254.316c-20.772-17.294-39.262-22.24-58.722-28.391c-5.845,8.677-9.258,19.126-9.258,30.375
	c0,30.068,24.375,54.443,54.443,54.443c17.766,0,33.534-8.516,43.471-21.681C195.077,273,184.356,262.002,175.125,254.316z"/>
<path style="fill:#FFA81E;" d="M175.125,254.316c-14.164-11.793-27.268-17.842-40.341-22.45c-2.545,4.987-3.99,10.63-3.99,16.614
	c0,20.216,16.388,36.605,36.605,36.605c10.511,0,19.984-4.432,26.661-11.527C187.528,265.491,181.023,259.226,175.125,254.316z"/>
</svg>